<svg width="40" height="40" viewBox="0 0 40 40" fill="none" xmlns="http://www.w3.org/2000/svg">
<circle cx="20" cy="20" r="19.5" fill="white" stroke="#EAEBEB"/>
<g clip-path="url(#clip0_4509_6784)">
<path d="M20.4393 7.47693C20.2862 7.38772 20.1123 7.34072 19.9352 7.34072C19.7581 7.34072 19.5841 7.38773 19.4311 7.47693C17.6038 8.55072 16.1169 10.1188 15.1417 12.0005C14.1664 13.8822 13.7424 16.0011 13.9186 18.1132L14.0663 19.8377L11.78 21.2352C11.1761 21.5268 10.6982 22.0272 10.4344 22.6438C10.1706 23.2604 10.1389 23.9516 10.345 24.5897L11.5469 28.9032C11.589 29.0543 11.666 29.1934 11.7718 29.3092C11.8776 29.425 12.0091 29.5143 12.1558 29.5699C12.3025 29.6255 12.4602 29.6458 12.6161 29.6292C12.7721 29.6126 12.922 29.5595 13.0536 29.4742L15.6922 27.7672C16.0684 28.5115 16.5132 29.2192 17.0208 29.8809C17.1142 30.0023 17.2343 30.1006 17.3717 30.1683C17.5092 30.2359 17.6603 30.2711 17.8135 30.2711L22.1977 30.2711C22.329 30.2711 22.459 30.2453 22.5804 30.1951C22.7017 30.1449 22.8119 30.0712 22.9048 29.9783C22.9252 29.958 22.9445 29.9366 22.9635 29.9141C23.5075 29.2626 23.9819 28.556 24.3788 27.8058L26.9575 29.4743C27.0892 29.5594 27.2391 29.6124 27.395 29.629C27.551 29.6456 27.7087 29.6253 27.8553 29.5697C28.002 29.5141 28.1335 29.4248 28.2393 29.309C28.3451 29.1933 28.4221 29.0542 28.4643 28.9032L29.6682 24.5842C29.8207 23.9594 29.7708 23.3023 29.5257 22.7077C29.2806 22.1131 28.8529 21.6117 28.3044 21.2759L25.8807 19.7978L25.9511 18.1187C26.1342 16.0051 25.7134 13.8828 24.7377 11.9989C23.7619 10.115 22.2713 8.54688 20.4393 7.47693V7.47693ZM13.1082 27.0567L12.2571 24.0049C12.193 23.804 12.2081 23.5863 12.2994 23.3963C12.3907 23.2062 12.5512 23.0583 12.7481 22.9829L14.2568 22.0628L14.3429 23.0681C14.4294 24.0261 14.6212 24.9717 14.9148 25.8877L13.1082 27.0567ZM27.7399 24.0529L26.9026 27.0563L25.1814 25.9425C25.49 25.0199 25.6786 24.0613 25.7425 23.0906L25.7849 22.0814L27.2472 22.9732C27.4296 23.0815 27.5745 23.243 27.6625 23.4359C27.7506 23.6289 27.7776 23.8441 27.7399 24.0529V24.0529ZM23.9562 17.9862L23.7452 22.986C23.6058 24.9091 22.9007 26.7481 21.7185 28.2713L18.3183 28.2713C17.1904 26.6868 16.5057 24.83 16.3348 22.8925L16.1125 20.2967C16.1116 20.2562 16.1082 20.2158 16.1022 20.1758L15.9121 17.9565C15.7763 16.3202 16.0771 14.6771 16.7839 13.1951C17.4907 11.7131 18.5781 10.4452 19.9352 9.52092C21.301 10.4436 22.3945 11.7156 23.1017 13.2044C23.8089 14.6933 24.104 16.3445 23.9562 17.9862V17.9862ZM18.9451 14.2804C18.7353 14.4902 18.5924 14.7575 18.5346 15.0484C18.4767 15.3394 18.5064 15.641 18.6199 15.9151C18.7335 16.1892 18.9257 16.4235 19.1724 16.5883C19.4191 16.7531 19.7091 16.8411 20.0057 16.8411C20.3024 16.8411 20.5924 16.7531 20.8391 16.5883C21.0858 16.4235 21.278 16.1892 21.3916 15.9151C21.5051 15.641 21.5348 15.3394 21.4769 15.0484C21.419 14.7575 21.2762 14.4902 21.0664 14.2804C20.9271 14.1411 20.7618 14.0306 20.5798 13.9552C20.3978 13.8798 20.2027 13.841 20.0057 13.841C19.8087 13.841 19.6137 13.8798 19.4317 13.9552C19.2497 14.0306 19.0843 14.1411 18.945 14.2804L18.9451 14.2804Z" fill="#565758"/>
</g>
<defs>
<clipPath id="clip0_4509_6784">
<rect width="24" height="24" fill="white" transform="translate(3 22) rotate(-45)"/>
</clipPath>
</defs>
</svg>
