<svg width="51" height="50" viewBox="0 0 51 50" fill="none" xmlns="http://www.w3.org/2000/svg">
<path d="M24.9321 0H43.6879C47.1902 0 50.0013 2.76497 50.0013 6.31336V25.0691C50.0013 38.8479 38.8492 50 25.0704 50H24.9321C11.1533 50 0.00127163 38.8479 0.00127163 25.0691C-0.136977 11.2903 11.0151 0.138249 24.7939 0H24.9321Z" fill="#E67300"/>
<path d="M25.2547 12.4885C28.0197 12.4885 30.2316 14.7005 30.2316 17.4655C30.2316 20.2305 28.0197 22.4424 25.2547 22.4424C22.4897 22.4424 20.2777 20.2305 20.2777 17.4655C20.2316 14.7005 22.4897 12.4885 25.2547 12.4885Z" fill="white"/>
<path d="M14.2409 24.0553L22.9045 32.7189V37.5576H27.1441V32.7189L35.8077 24.0553H14.2409Z" fill="white"/>
</svg>
