<svg width="12" height="10" viewBox="0 0 12 10" fill="none" xmlns="http://www.w3.org/2000/svg">
<path d="M6.81595 4.99947L11.3764 1.07065C11.5127 0.95303 11.5893 0.793506 11.5893 0.62717C11.5893 0.460834 11.5127 0.301311 11.3764 0.183694C11.2401 0.0660767 11.0552 0 10.8625 0C10.6697 0 10.4848 0.0660767 10.3485 0.183694L5.79528 4.11877L1.24204 0.183694C1.10573 0.0660767 0.920854 1.4768e-07 0.728082 1.4892e-07C0.53531 1.50159e-07 0.350434 0.0660767 0.214124 0.183694C0.0778137 0.301311 0.00123556 0.460834 0.00123555 0.62717C0.00123555 0.793506 0.0778137 0.95303 0.214124 1.07065L4.7746 4.99947L0.214124 8.9283C0.146275 8.98637 0.0924226 9.05545 0.0556719 9.13156C0.0189213 9.20768 0 9.28932 0 9.37177C0 9.45423 0.0189213 9.53587 0.0556719 9.61199C0.0924226 9.6881 0.146275 9.75718 0.214124 9.81525C0.281418 9.87379 0.361481 9.92026 0.449693 9.95197C0.537905 9.98369 0.632521 10 0.728082 10C0.823644 10 0.918259 9.98369 1.00647 9.95197C1.09468 9.92026 1.17475 9.87379 1.24204 9.81525L5.79528 5.88018L10.3485 9.81525C10.4158 9.87379 10.4959 9.92026 10.5841 9.95197C10.6723 9.98369 10.7669 10 10.8625 10C10.958 10 11.0526 9.98369 11.1409 9.95197C11.2291 9.92026 11.3091 9.87379 11.3764 9.81525C11.4443 9.75718 11.4981 9.6881 11.5349 9.61199C11.5716 9.53587 11.5906 9.45423 11.5906 9.37177C11.5906 9.28932 11.5716 9.20768 11.5349 9.13156C11.4981 9.05545 11.4443 8.98637 11.3764 8.9283L6.81595 4.99947Z" fill="#424C5D"/>
</svg>
