<svg width="36" height="39" viewBox="0 0 36 39" fill="none" xmlns="http://www.w3.org/2000/svg">
<path d="M0.5 0.5H32C33.933 0.5 35.5 2.067 35.5 4V35C35.5 36.933 33.933 38.5 32 38.5H0.5V0.5Z" fill="#F9FAFB" stroke="#E5E8EB"/>
<path d="M18.0001 19.8333C18.4603 19.8333 18.8334 19.4602 18.8334 19C18.8334 18.5397 18.4603 18.1666 18.0001 18.1666C17.5398 18.1666 17.1667 18.5397 17.1667 19C17.1667 19.4602 17.5398 19.8333 18.0001 19.8333Z" fill="#424C5D" stroke="#424C5D" stroke-width="2" stroke-linecap="round" stroke-linejoin="round"/>
<path d="M18.0001 14C18.4603 14 18.8334 13.6269 18.8334 13.1667C18.8334 12.7065 18.4603 12.3334 18.0001 12.3334C17.5398 12.3334 17.1667 12.7065 17.1667 13.1667C17.1667 13.6269 17.5398 14 18.0001 14Z" stroke="#424C5D" stroke-width="2" stroke-linecap="round" stroke-linejoin="round"/>
<path d="M18.0001 25.6667C18.4603 25.6667 18.8334 25.2936 18.8334 24.8333C18.8334 24.3731 18.4603 24 18.0001 24C17.5398 24 17.1667 24.3731 17.1667 24.8333C17.1667 25.2936 17.5398 25.6667 18.0001 25.6667Z" stroke="#424C5D" stroke-width="2" stroke-linecap="round" stroke-linejoin="round"/>
</svg>
