<svg width="20" height="20" viewBox="0 0 20 20" fill="none" xmlns="http://www.w3.org/2000/svg">
<path d="M13.75 2.8125V6.5625H6.25V13.4375H2.5V4.0625C2.50097 3.73128 2.63298 3.4139 2.86719 3.17969C3.1014 2.94548 3.41878 2.81347 3.75 2.8125H13.75Z" fill="#4285F4"/>
<path d="M13.75 17.1875V13.4375H17.5L13.75 17.1875Z" fill="#EA4435"/>
<path d="M17.5 5.9375H13.75V13.4375H17.5V5.9375Z" fill="#FFBA00"/>
<path d="M13.75 17.1875V13.4375H6.25V17.1875H13.75Z" fill="#00AC47"/>
<path d="M17.5 4.0625V6.5625H13.75V2.8125H16.25C16.5812 2.81347 16.8986 2.94548 17.1328 3.17969C17.367 3.4139 17.499 3.73128 17.5 4.0625V4.0625Z" fill="#0066DA"/>
<path d="M6.25 13.4375V17.1875H3.75C3.41878 17.1865 3.1014 17.0545 2.86719 16.8203C2.63298 16.5861 2.50097 16.2687 2.5 15.9375V13.4375H6.25Z" fill="#188038"/>
<path d="M9.80625 10.6813C9.80625 11.2375 9.39375 11.8 8.4625 11.8C8.12982 11.8044 7.80196 11.7203 7.5125 11.5563L7.4625 11.5188L7.64375 11.0063L7.725 11.0563C7.94589 11.19 8.19808 11.2633 8.45625 11.2688C8.55625 11.2752 8.6565 11.2613 8.75101 11.228C8.84552 11.1947 8.93233 11.1427 9.00625 11.075C9.05923 11.022 9.1005 10.9584 9.12741 10.8885C9.15432 10.8185 9.16628 10.7437 9.1625 10.6688C9.15625 10.2125 8.7375 10.05 8.34375 10.05H8.00625V9.5438H8.34375C8.625 9.5438 9.04375 9.4063 9.04375 9.0313C9.04375 8.75005 8.85 8.58755 8.5125 8.58755C8.2796 8.59261 8.05342 8.66656 7.8625 8.80005L7.775 8.86255L7.6 8.3688L7.64375 8.3313C7.92901 8.14795 8.2609 8.05033 8.6 8.05005C9.34375 8.05005 9.675 8.5063 9.675 8.9563C9.67583 9.12569 9.62874 9.29186 9.53916 9.43563C9.44958 9.5794 9.32117 9.6949 9.16875 9.7688C9.35749 9.83451 9.52069 9.95807 9.63514 10.1219C9.7496 10.2857 9.80947 10.4815 9.80625 10.6813V10.6813Z" fill="#4285F4"/>
<path d="M11.6937 8.11255V11.7438H11.0812V8.75005L10.4938 9.0688L10.3625 8.5563L11.2188 8.11255H11.6937Z" fill="#4285F4"/>
</svg>
