<svg width="10" height="9" viewBox="0 0 10 9" fill="none" xmlns="http://www.w3.org/2000/svg">
<path d="M5.87503 4.31434L9.81255 0.916797C10.0625 0.70108 10.0625 0.377505 9.81255 0.161788C9.56254 -0.0539293 9.18754 -0.0539293 8.93754 0.161788L5.00002 3.55933L1.0625 0.161788C0.812504 -0.0539293 0.437502 -0.0539293 0.187501 0.161788C-0.0625002 0.377505 -0.0625002 0.70108 0.187501 0.916797L4.12502 4.31434L0.187501 7.71189C0.0625004 7.81974 0 7.9276 0 8.08939C0 8.41297 0.250001 8.62868 0.625003 8.62868C0.812504 8.62868 0.937504 8.57476 1.0625 8.4669L5.00002 5.06935L8.93754 8.4669C9.06254 8.57476 9.18754 8.62868 9.37504 8.62868C9.56254 8.62868 9.68754 8.57476 9.81255 8.4669C10.0625 8.25118 10.0625 7.9276 9.81255 7.71189L5.87503 4.31434Z" fill="black"/>
</svg>
