<svg width="17" height="17" viewBox="0 0 17 17" fill="none" xmlns="http://www.w3.org/2000/svg">
<path d="M9.99704 8.49819L16.6859 1.8199C16.8859 1.61998 16.9982 1.34882 16.9982 1.06607C16.9982 0.783334 16.8859 0.512174 16.6859 0.312246C16.486 0.112318 16.2149 0 15.9321 0C15.6494 0 15.3782 0.112318 15.1783 0.312246L8.5 7.00115L1.82172 0.312246C1.62179 0.112318 1.35063 2.5103e-07 1.06789 2.53136e-07C0.785146 2.55243e-07 0.513986 0.112318 0.314058 0.312246C0.11413 0.512174 0.0018122 0.783334 0.0018122 1.06607C0.0018122 1.34882 0.11413 1.61998 0.314058 1.8199L7.00296 8.49819L0.314058 15.1765C0.214544 15.2752 0.135557 15.3926 0.0816547 15.522C0.027752 15.6514 0 15.7901 0 15.9303C0 16.0705 0.027752 16.2092 0.0816547 16.3386C0.135557 16.468 0.214544 16.5854 0.314058 16.6841C0.41276 16.7836 0.530188 16.8626 0.65957 16.9165C0.788952 16.9704 0.927726 16.9982 1.06789 16.9982C1.20805 16.9982 1.34682 16.9704 1.4762 16.9165C1.60559 16.8626 1.72301 16.7836 1.82172 16.6841L8.5 9.99523L15.1783 16.6841C15.277 16.7836 15.3944 16.8626 15.5238 16.9165C15.6532 16.9704 15.792 16.9982 15.9321 16.9982C16.0723 16.9982 16.211 16.9704 16.3404 16.9165C16.4698 16.8626 16.5872 16.7836 16.6859 16.6841C16.7855 16.5854 16.8644 16.468 16.9183 16.3386C16.9722 16.2092 17 16.0705 17 15.9303C17 15.7901 16.9722 15.6514 16.9183 15.522C16.8644 15.3926 16.7855 15.2752 16.6859 15.1765L9.99704 8.49819Z" fill="#424C5D"/>
</svg>
