<svg width="24" height="22" viewBox="0 0 24 22" fill="none" xmlns="http://www.w3.org/2000/svg">
<path d="M12 11.7766C12.5523 11.7766 13 11.3711 13 10.8707C13 10.3704 12.5523 9.96484 12 9.96484C11.4477 9.96484 11 10.3704 11 10.8707C11 11.3711 11.4477 11.7766 12 11.7766Z" stroke="#5F6C86" stroke-width="2" stroke-linecap="round" stroke-linejoin="round"/>
<path d="M12 5.43533C12.5523 5.43533 13 5.02974 13 4.52943C13 4.02912 12.5523 3.62354 12 3.62354C11.4477 3.62354 11 4.02912 11 4.52943C11 5.02974 11.4477 5.43533 12 5.43533Z" stroke="#5F6C86" stroke-width="2" stroke-linecap="round" stroke-linejoin="round"/>
<path d="M12 18.1179C12.5523 18.1179 13 17.7124 13 17.212C13 16.7117 12.5523 16.3062 12 16.3062C11.4477 16.3062 11 16.7117 11 17.212C11 17.7124 11.4477 18.1179 12 18.1179Z" stroke="#5F6C86" stroke-width="2" stroke-linecap="round" stroke-linejoin="round"/>
</svg>
