<svg width="20" height="20" viewBox="0 0 20 20" fill="none" xmlns="http://www.w3.org/2000/svg">
<g clip-path="url(#clip0_4509_6872)">
<path d="M10.4486 0.357178H11.7835C11.7835 1.84601 11.7835 3.33263 11.7835 4.82146C14.096 4.82593 16.4062 4.81476 18.7166 4.82146C19.1719 4.79914 19.7946 4.93084 19.7857 5.5045C19.8705 8.32817 19.7879 11.1585 19.8259 13.9844C19.8348 14.4844 19.8192 15.2724 19.1384 15.279C16.6897 15.3639 14.2344 15.2857 11.7835 15.3125C11.7835 16.7255 11.7835 18.1407 11.7835 19.5536H10.3996C6.99774 18.9354 3.58704 18.3661 0.18079 17.7679C0.178558 12.5603 0.178558 7.35273 0.178558 2.14736C3.60267 1.54691 7.02674 0.966552 10.4486 0.357178Z" fill="#0071C5"/>
<path d="M11.7835 5.49103C14.2567 5.49326 16.7277 5.48434 19.2009 5.49549C19.1584 5.78791 19.0691 6.07585 18.8236 6.25888C17.346 7.63613 15.8773 9.02006 14.404 10.4018C13.5179 9.60038 12.6563 8.77225 11.7835 7.95756C11.7835 7.13388 11.7835 6.31244 11.7835 5.49103Z" fill="white"/>
<path d="M4.96428 6.30799C6.22321 5.83253 7.6942 6.49993 8.2277 7.71643C8.95532 9.39056 8.8527 11.6807 7.40626 12.9464C6.07365 14.087 3.83928 13.4374 3.23214 11.8169C2.43303 9.94862 2.82142 7.07362 4.96428 6.30799Z" fill="white"/>
<path d="M15.1049 10.6005C16.4464 9.32598 17.7991 8.06036 19.1473 6.79248C19.1541 9.40854 19.1473 12.0269 19.1494 14.6429C16.6942 14.6429 14.2388 14.6429 11.7835 14.6429C11.7835 12.6965 11.7812 10.75 11.7857 8.80586C12.6183 9.54248 13.3638 10.3818 14.2477 11.0537C14.6116 11.1206 14.8571 10.8059 15.1049 10.6005Z" fill="white"/>
<path d="M5.18081 7.6496C5.77456 7.3661 6.51788 7.6541 6.79688 8.2411C7.24332 9.12504 7.24107 10.2032 6.94869 11.1362C6.74107 11.7992 6.01564 12.346 5.31251 12.0849C4.43528 11.8081 4.16965 10.7679 4.16072 9.95317C4.14956 9.10942 4.34376 8.0581 5.18081 7.6496Z" fill="#0071C5"/>
</g>
<defs>
<clipPath id="clip0_4509_6872">
<rect width="20" height="20" fill="white"/>
</clipPath>
</defs>
</svg>
