<svg width="12" height="11" viewBox="0 0 12 11" fill="none" xmlns="http://www.w3.org/2000/svg">
<path d="M6 0C4.81331 0 3.65327 0.303637 2.66658 0.872513C1.67989 1.44139 0.910851 2.24995 0.456725 3.19596C0.0025997 4.14197 -0.11622 5.18293 0.115291 6.1872C0.346802 7.19148 0.918246 8.11396 1.75736 8.83801C2.59648 9.56205 3.66557 10.0551 4.82946 10.2549C5.99334 10.4547 7.19974 10.3521 8.2961 9.96028C9.39245 9.56843 10.3295 8.90486 10.9888 8.05347C11.6481 7.20209 12 6.20113 12 5.17718C11.9982 3.80459 11.3655 2.48867 10.2406 1.5181C9.1158 0.547526 7.59074 0.00157029 6 0V0ZM6 9.31893C5.05065 9.31893 4.12262 9.07602 3.33326 8.62092C2.54391 8.16582 1.92868 7.51897 1.56538 6.76216C1.20208 6.00536 1.10702 5.17259 1.29223 4.36917C1.47744 3.56575 1.9346 2.82776 2.60589 2.24853C3.27718 1.66929 4.13246 1.27483 5.06357 1.11502C5.99467 0.955209 6.95979 1.03723 7.83688 1.35071C8.71396 1.66419 9.46362 2.19505 9.99105 2.87615C10.5185 3.55726 10.8 4.35802 10.8 5.17718C10.7985 6.27526 10.2924 7.328 9.3925 8.10445C8.49264 8.88091 7.27259 9.31768 6 9.31893V9.31893ZM6.6 5.04724V2.58859C6.6 2.45128 6.53678 2.3196 6.42426 2.22251C6.31174 2.12542 6.15913 2.07087 6 2.07087C5.84087 2.07087 5.68826 2.12542 5.57574 2.22251C5.46321 2.3196 5.4 2.45128 5.4 2.58859V5.17718C5.40008 5.26245 5.42443 5.34639 5.4709 5.42164L6.3709 6.87064C6.44603 6.99172 6.57383 7.08209 6.72619 7.12187C6.87855 7.16164 7.04297 7.14757 7.1833 7.08274C7.32363 7.0179 7.42836 6.90763 7.47446 6.77616C7.52055 6.6447 7.50424 6.50282 7.4291 6.38174L6.6 5.04724Z" fill="#424C5D"/>
</svg>
