<svg width="20" height="20" viewBox="0 0 20 20" fill="none" xmlns="http://www.w3.org/2000/svg">
<path d="M10 9.16675C10.4602 9.16675 10.8333 9.53983 10.8333 10.0001V10.8334H11.6667C12.1269 10.8334 12.5 11.2065 12.5 11.6667C12.5 12.127 12.1269 12.5001 11.6667 12.5001H10.8333V13.3334C10.8333 13.7937 10.4602 14.1667 10 14.1667C9.53975 14.1667 9.16667 13.7937 9.16667 13.3334V12.5001H8.33333C7.8731 12.5001 7.5 12.127 7.5 11.6667C7.5 11.2065 7.8731 10.8334 8.33333 10.8334H9.16667V10.0001C9.16667 9.53983 9.53975 9.16675 10 9.16675Z" fill="#424C5D"/>
<path fill-rule="evenodd" clip-rule="evenodd" d="M10 1.66675C10.4602 1.66675 10.8333 2.03985 10.8333 2.50008H13.3333C13.3333 2.03985 13.7064 1.66675 14.1667 1.66675C14.6269 1.66675 15 2.03985 15 2.50008C16.8409 2.50008 18.3333 3.99246 18.3333 5.83341V15.0001C18.3333 16.841 16.8409 18.3334 15 18.3334H5C3.15905 18.3334 1.66667 16.841 1.66667 15.0001V5.83341C1.66667 3.99246 3.15905 2.50008 5 2.50008C5 2.03985 5.3731 1.66675 5.83333 1.66675C6.29357 1.66675 6.66667 2.03985 6.66667 2.50008H9.16667C9.16667 2.03985 9.53975 1.66675 10 1.66675ZM3.33333 7.50008V15.0001C3.33333 15.9206 4.07952 16.6667 5 16.6667H15C15.9205 16.6667 16.6667 15.9206 16.6667 15.0001V7.50008H3.33333ZM16.6667 5.83341C16.6667 4.91294 15.9205 4.16675 15 4.16675C15 4.62698 14.6269 5.00008 14.1667 5.00008C13.7064 5.00008 13.3333 4.62698 13.3333 4.16675H10.8333C10.8333 4.62698 10.4602 5.00008 10 5.00008C9.53975 5.00008 9.16667 4.62698 9.16667 4.16675H6.66667C6.66667 4.62698 6.29357 5.00008 5.83333 5.00008C5.3731 5.00008 5 4.62698 5 4.16675C4.07952 4.16675 3.33333 4.91294 3.33333 5.83341H16.6667Z" fill="#424C5D"/>
</svg>
