<svg width="15" height="13" viewBox="0 0 15 13" fill="none" xmlns="http://www.w3.org/2000/svg">
<path d="M8.38127 6.47152L12.3188 3.0794C12.4364 2.97785 12.5026 2.84012 12.5026 2.69651C12.5026 2.55289 12.4364 2.41516 12.3188 2.31361C12.2011 2.21206 12.0414 2.15501 11.875 2.15501C11.7086 2.15501 11.549 2.21206 11.4313 2.31361L7.50003 5.71113L3.56879 2.31361C3.4511 2.21206 3.29148 2.15501 3.12504 2.15501C2.95861 2.15501 2.79898 2.21206 2.6813 2.31361C2.56361 2.41516 2.49749 2.55289 2.49749 2.69651C2.49749 2.84012 2.56361 2.97785 2.6813 3.0794L6.61878 6.47152L2.6813 9.86365C2.62272 9.91378 2.57622 9.97343 2.54449 10.0391C2.51276 10.1049 2.49642 10.1753 2.49642 10.2465C2.49642 10.3177 2.51276 10.3882 2.54449 10.4539C2.57622 10.5197 2.62272 10.5793 2.6813 10.6294C2.7394 10.68 2.80852 10.7201 2.88468 10.7475C2.96085 10.7749 3.04254 10.789 3.12504 10.789C3.20755 10.789 3.28924 10.7749 3.3654 10.7475C3.44156 10.7201 3.51069 10.68 3.56879 10.6294L7.50003 7.23192L11.4313 10.6294C11.4894 10.68 11.5585 10.7201 11.6346 10.7475C11.7108 10.7749 11.7925 10.789 11.875 10.789C11.9575 10.789 12.0392 10.7749 12.1154 10.7475C12.1915 10.7201 12.2607 10.68 12.3188 10.6294C12.3773 10.5793 12.4238 10.5197 12.4556 10.4539C12.4873 10.3882 12.5036 10.3177 12.5036 10.2465C12.5036 10.1753 12.4873 10.1049 12.4556 10.0391C12.4238 9.97343 12.3773 9.91378 12.3188 9.86365L8.38127 6.47152Z" fill="#424C5D"/>
</svg>
