<svg width="20" height="20" viewBox="0 0 20 20" fill="none" xmlns="http://www.w3.org/2000/svg">
<path d="M11.1666 9.99992L16.4166 4.74992C16.75 4.41658 16.75 3.91659 16.4166 3.58325C16.0833 3.24992 15.5833 3.24992 15.25 3.58325L9.99998 8.83325L4.74998 3.58325C4.41665 3.24992 3.91665 3.24992 3.58331 3.58325C3.24998 3.91659 3.24998 4.41658 3.58331 4.74992L8.83331 9.99992L3.58331 15.2499C3.41665 15.4166 3.33331 15.5833 3.33331 15.8333C3.33331 16.3333 3.66665 16.6666 4.16665 16.6666C4.41665 16.6666 4.58331 16.5833 4.74998 16.4166L9.99998 11.1666L15.25 16.4166C15.4166 16.5833 15.5833 16.6666 15.8333 16.6666C16.0833 16.6666 16.25 16.5833 16.4166 16.4166C16.75 16.0833 16.75 15.5833 16.4166 15.2499L11.1666 9.99992Z" fill="black"/>
</svg>
