<svg width="40" height="40" viewBox="0 0 40 40" fill="none" xmlns="http://www.w3.org/2000/svg">
<circle cx="20" cy="20" r="19.5" fill="white" stroke="#EAEBEB"/>
<g clip-path="url(#clip0_4712_9811)">
<path d="M20.4393 7.47681C20.2862 7.3876 20.1123 7.3406 19.9352 7.3406C19.7581 7.3406 19.5841 7.3876 19.4311 7.47681C17.6038 8.5506 16.1169 10.1186 15.1417 12.0004C14.1664 13.8821 13.7424 16.001 13.9186 18.1131L14.0663 19.8376L11.78 21.235C11.1761 21.5267 10.6982 22.0271 10.4344 22.6436C10.1706 23.2602 10.1389 23.9515 10.345 24.5896L11.5469 28.903C11.589 29.0541 11.666 29.1932 11.7718 29.3091C11.8776 29.4249 12.0091 29.5142 12.1558 29.5698C12.3025 29.6254 12.4602 29.6457 12.6161 29.6291C12.7721 29.6124 12.922 29.5593 13.0536 29.4741L15.6922 27.7671C16.0684 28.5114 16.5132 29.2191 17.0208 29.8808C17.1142 30.0022 17.2343 30.1005 17.3717 30.1682C17.5092 30.2358 17.6603 30.271 17.8135 30.271L22.1977 30.271C22.329 30.271 22.459 30.2452 22.5804 30.195C22.7017 30.1447 22.8119 30.0711 22.9048 29.9782C22.9252 29.9579 22.9445 29.9364 22.9635 29.914C23.5075 29.2625 23.9819 28.5559 24.3788 27.8057L26.9575 29.4741C27.0892 29.5593 27.2391 29.6123 27.395 29.6289C27.551 29.6455 27.7087 29.6252 27.8553 29.5696C28.002 29.514 28.1335 29.4247 28.2393 29.3089C28.3451 29.1931 28.4221 29.0541 28.4643 28.9031L29.6682 24.5841C29.8207 23.9593 29.7708 23.3022 29.5257 22.7076C29.2806 22.113 28.8529 21.6116 28.3044 21.2758L25.8807 19.7977L25.9511 18.1186C26.1342 16.0049 25.7134 13.8827 24.7377 11.9988C23.7619 10.1149 22.2713 8.54676 20.4393 7.47681V7.47681ZM13.1082 27.0566L12.2571 24.0047C12.193 23.8039 12.2081 23.5862 12.2994 23.3961C12.3907 23.2061 12.5512 23.0582 12.7481 22.9828L14.2568 22.0627L14.3429 23.068C14.4294 24.026 14.6212 24.9716 14.9148 25.8876L13.1082 27.0566ZM27.7399 24.0527L26.9026 27.0562L25.1814 25.9424C25.49 25.0197 25.6786 24.0612 25.7425 23.0904L25.7849 22.0813L27.2472 22.9731C27.4296 23.0814 27.5745 23.2428 27.6625 23.4358C27.7506 23.6288 27.7776 23.844 27.7399 24.0527V24.0527ZM23.9562 17.9861L23.7452 22.9859C23.6058 24.909 22.9007 26.7479 21.7185 28.2712L18.3183 28.2712C17.1904 26.6866 16.5057 24.8298 16.3348 22.8923L16.1125 20.2965C16.1116 20.2561 16.1082 20.2157 16.1022 20.1757L15.9121 17.9564C15.7763 16.3201 16.0771 14.677 16.7839 13.195C17.4907 11.713 18.5781 10.4451 19.9352 9.52079C21.301 10.4434 22.3945 11.7154 23.1017 13.2043C23.8089 14.6932 24.104 16.3444 23.9562 17.9861V17.9861ZM18.9451 14.2803C18.7353 14.4901 18.5924 14.7573 18.5346 15.0483C18.4767 15.3393 18.5064 15.6409 18.6199 15.915C18.7335 16.1891 18.9257 16.4233 19.1724 16.5882C19.4191 16.753 19.7091 16.8409 20.0057 16.8409C20.3024 16.8409 20.5924 16.753 20.8391 16.5882C21.0858 16.4233 21.278 16.1891 21.3916 15.915C21.5051 15.6409 21.5348 15.3393 21.4769 15.0483C21.419 14.7573 21.2762 14.4901 21.0664 14.2803C20.9271 14.141 20.7618 14.0305 20.5798 13.9551C20.3978 13.8797 20.2027 13.8409 20.0057 13.8409C19.8087 13.8409 19.6137 13.8797 19.4317 13.9551C19.2497 14.0305 19.0843 14.141 18.945 14.2803L18.9451 14.2803Z" fill="#565758"/>
</g>
<defs>
<clipPath id="clip0_4712_9811">
<rect width="24" height="24" fill="white" transform="translate(3 22) rotate(-45)"/>
</clipPath>
</defs>
</svg>
