<svg width="36" height="39" viewBox="0 0 36 39" fill="none" xmlns="http://www.w3.org/2000/svg">
<path d="M0.5 0.5H32C33.933 0.5 35.5 2.067 35.5 4V35C35.5 36.933 33.933 38.5 32 38.5H0.5V0.5Z" fill="#F9FAFB" stroke="#E5E8EB"/>
<path d="M18.0001 19.8334C18.4603 19.8334 18.8334 19.4603 18.8334 19.0001C18.8334 18.5398 18.4603 18.1667 18.0001 18.1667C17.5398 18.1667 17.1667 18.5398 17.1667 19.0001C17.1667 19.4603 17.5398 19.8334 18.0001 19.8334Z" fill="#424C5D" stroke="#424C5D" stroke-width="2" stroke-linecap="round" stroke-linejoin="round"/>
<path d="M18.0001 13.9999C18.4603 13.9999 18.8334 13.6268 18.8334 13.1666C18.8334 12.7063 18.4603 12.3333 18.0001 12.3333C17.5398 12.3333 17.1667 12.7063 17.1667 13.1666C17.1667 13.6268 17.5398 13.9999 18.0001 13.9999Z" stroke="#424C5D" stroke-width="2" stroke-linecap="round" stroke-linejoin="round"/>
<path d="M18.0001 25.6667C18.4603 25.6667 18.8334 25.2936 18.8334 24.8333C18.8334 24.3731 18.4603 24 18.0001 24C17.5398 24 17.1667 24.3731 17.1667 24.8333C17.1667 25.2936 17.5398 25.6667 18.0001 25.6667Z" stroke="#424C5D" stroke-width="2" stroke-linecap="round" stroke-linejoin="round"/>
</svg>
