<svg width="20" height="20" viewBox="0 0 20 20" fill="none" xmlns="http://www.w3.org/2000/svg">
<path d="M9.99999 1.66675C8.35182 1.66675 6.74065 2.15549 5.37024 3.07117C3.99983 3.98685 2.93173 5.28834 2.301 6.81105C1.67027 8.33377 1.50524 10.0093 1.82678 11.6258C2.14833 13.2423 2.942 14.7272 4.10744 15.8926C5.27287 17.0581 6.75773 17.8518 8.37424 18.1733C9.99075 18.4948 11.6663 18.3298 13.189 17.6991C14.7117 17.0683 16.0132 16.0002 16.9289 14.6298C17.8446 13.2594 18.3333 11.6483 18.3333 10.0001C18.3309 7.7907 17.4521 5.67251 15.8898 4.11024C14.3276 2.54797 12.2094 1.66921 9.99999 1.66675V1.66675ZM9.99999 16.6667C8.68145 16.6667 7.39252 16.2758 6.29619 15.5432C5.19986 14.8107 4.34538 13.7695 3.8408 12.5513C3.33621 11.3331 3.20419 9.99269 3.46143 8.69948C3.71866 7.40627 4.3536 6.21839 5.28595 5.28604C6.2183 4.35369 7.40618 3.71875 8.69939 3.46151C9.9926 3.20428 11.333 3.3363 12.5512 3.84088C13.7694 4.34547 14.8106 5.19995 15.5431 6.29628C16.2757 7.39261 16.6667 8.68154 16.6667 10.0001C16.6646 11.7676 15.9616 13.4621 14.7118 14.7119C13.462 15.9617 11.7675 16.6647 9.99999 16.6667V16.6667ZM9.99999 9.58342C9.77898 9.58342 9.56702 9.67121 9.41074 9.82749C9.25446 9.98377 9.16666 10.1957 9.16666 10.4167V12.9167C9.16666 13.1378 9.25446 13.3497 9.41074 13.506C9.56702 13.6623 9.77898 13.7501 9.99999 13.7501C10.221 13.7501 10.433 13.6623 10.5892 13.506C10.7455 13.3497 10.8333 13.1378 10.8333 12.9167V10.4167C10.8333 10.1957 10.7455 9.98377 10.5892 9.82749C10.433 9.67121 10.221 9.58342 9.99999 9.58342ZM9.99999 6.25008C9.79397 6.25008 9.59258 6.31117 9.42127 6.42563C9.24997 6.54009 9.11646 6.70278 9.03762 6.89312C8.95878 7.08346 8.93815 7.2929 8.97834 7.49497C9.01854 7.69703 9.11774 7.88264 9.26342 8.02832C9.4091 8.174 9.59471 8.27321 9.79677 8.3134C9.99884 8.35359 10.2083 8.33296 10.3986 8.25412C10.589 8.17528 10.7516 8.04177 10.8661 7.87047C10.9806 7.69917 11.0417 7.49777 11.0417 7.29175C11.0417 7.01548 10.9319 6.75053 10.7366 6.55518C10.5412 6.35983 10.2763 6.25008 9.99999 6.25008V6.25008Z" fill="#5F6C86"/>
</svg>
