<svg width="12" height="11" viewBox="0 0 12 11" fill="none" xmlns="http://www.w3.org/2000/svg">
<path d="M10.2 1.03544H8.99999V0.517718C8.99999 0.380411 8.93678 0.248727 8.82426 0.151636C8.71174 0.0545452 8.55912 0 8.39999 0C8.24086 0 8.08825 0.0545452 7.97573 0.151636C7.86321 0.248727 7.8 0.380411 7.8 0.517718V1.03544H4.2V0.517718C4.2 0.380411 4.13678 0.248727 4.02426 0.151636C3.91174 0.0545452 3.75913 0 3.6 0C3.44087 0 3.28826 0.0545452 3.17573 0.151636C3.06321 0.248727 3 0.380411 3 0.517718V1.03544H1.8C1.32261 1.03544 0.864773 1.19907 0.527208 1.49035C0.189642 1.78162 0 2.17667 0 2.58859V8.80121C0 9.21314 0.189642 9.60819 0.527208 9.89946C0.864773 10.1907 1.32261 10.3544 1.8 10.3544H10.2C10.6774 10.3544 11.1352 10.1907 11.4728 9.89946C11.8104 9.60819 12 9.21314 12 8.80121V2.58859C12 2.17667 11.8104 1.78162 11.4728 1.49035C11.1352 1.19907 10.6774 1.03544 10.2 1.03544V1.03544ZM10.8 8.80121C10.8 8.93852 10.7368 9.07021 10.6243 9.1673C10.5117 9.26439 10.3591 9.31893 10.2 9.31893H1.8C1.64087 9.31893 1.48826 9.26439 1.37574 9.1673C1.26321 9.07021 1.2 8.93852 1.2 8.80121V5.17718H10.8V8.80121ZM10.8 4.14175H1.2V2.58859C1.2 2.45128 1.26321 2.3196 1.37574 2.22251C1.48826 2.12542 1.64087 2.07087 1.8 2.07087H3V2.58859C3 2.7259 3.06321 2.85758 3.17573 2.95467C3.28826 3.05177 3.44087 3.10631 3.6 3.10631C3.75913 3.10631 3.91174 3.05177 4.02426 2.95467C4.13678 2.85758 4.2 2.7259 4.2 2.58859V2.07087H7.8V2.58859C7.8 2.7259 7.86321 2.85758 7.97573 2.95467C8.08825 3.05177 8.24086 3.10631 8.39999 3.10631C8.55912 3.10631 8.71174 3.05177 8.82426 2.95467C8.93678 2.85758 8.99999 2.7259 8.99999 2.58859V2.07087H10.2C10.3591 2.07087 10.5117 2.12542 10.6243 2.22251C10.7368 2.3196 10.8 2.45128 10.8 2.58859V4.14175Z" fill="#424C5D"/>
</svg>
