<svg width="40" height="40" viewBox="0 0 40 40" fill="none" xmlns="http://www.w3.org/2000/svg">
<circle cx="20" cy="20" r="19.5" fill="white" stroke="#EAEBEB"/>
<path d="M26.9998 12L12.9998 12C12.2042 12 11.4411 12.3161 10.8785 12.8787C10.3159 13.4413 9.99985 14.2044 9.99985 15V25C9.99985 25.7956 10.3159 26.5587 10.8785 27.1213C11.4411 27.6839 12.2042 28 12.9998 28H26.9998C27.7955 28 28.5586 27.6839 29.1212 27.1213C29.6838 26.5587 29.9998 25.7956 29.9998 25V15C29.9998 14.2044 29.6838 13.4413 29.1212 12.8787C28.5586 12.3161 27.7955 12 26.9998 12V12ZM12.9998 14H26.9998C27.2651 14 27.5194 14.1054 27.707 14.2929C27.8945 14.4804 27.9998 14.7348 27.9998 15L19.9998 19.88L11.9998 15C11.9998 14.7348 12.1052 14.4804 12.2927 14.2929C12.4803 14.1054 12.7346 14 12.9998 14V14ZM27.9998 25C27.9998 25.2652 27.8945 25.5196 27.707 25.7071C27.5194 25.8946 27.2651 26 26.9998 26H12.9998C12.7346 26 12.4803 25.8946 12.2927 25.7071C12.1052 25.5196 11.9998 25.2652 11.9998 25V17.28L19.4798 21.85C19.6319 21.9378 19.8043 21.984 19.9798 21.984C20.1554 21.984 20.3278 21.9378 20.4798 21.85L27.9998 17.28V25Z" fill="#565758"/>
</svg>
