<svg width="20" height="20" viewBox="0 0 20 20" fill="none" xmlns="http://www.w3.org/2000/svg">
<path d="M16.5833 10.55C16.4497 10.3979 16.376 10.2024 16.376 9.99999C16.376 9.79757 16.4497 9.60207 16.5833 9.44999L17.6499 8.24999C17.7675 8.11888 17.8405 7.95391 17.8584 7.77875C17.8764 7.60359 17.8384 7.42723 17.7499 7.27499L16.0833 4.39166C15.9957 4.2396 15.8623 4.11906 15.7022 4.04723C15.5421 3.97541 15.3634 3.95596 15.1916 3.99166L13.6249 4.30833C13.4256 4.34952 13.2181 4.31632 13.0415 4.21499C12.865 4.11367 12.7316 3.95123 12.6666 3.75833L12.1583 2.23333C12.1024 2.06781 11.9959 1.92405 11.8538 1.82236C11.7117 1.72068 11.5413 1.66621 11.3666 1.66666H8.03327C7.85155 1.65718 7.67171 1.70743 7.52124 1.80976C7.37076 1.91208 7.25792 2.06084 7.19993 2.23333L6.73327 3.75833C6.66827 3.95123 6.53491 4.11367 6.35836 4.21499C6.18181 4.31632 5.97428 4.34952 5.77493 4.30833L4.1666 3.99166C4.00373 3.96864 3.83768 3.99435 3.68939 4.06553C3.5411 4.13671 3.41719 4.25018 3.33327 4.39166L1.6666 7.27499C1.5759 7.42554 1.53512 7.6009 1.55009 7.77601C1.56505 7.95113 1.635 8.11703 1.74993 8.24999L2.80827 9.44999C2.94187 9.60207 3.01555 9.79757 3.01555 9.99999C3.01555 10.2024 2.94187 10.3979 2.80827 10.55L1.74993 11.75C1.635 11.883 1.56505 12.0489 1.55009 12.224C1.53512 12.3991 1.5759 12.5745 1.6666 12.725L3.33327 15.6083C3.42085 15.7604 3.5542 15.8809 3.71431 15.9528C3.87442 16.0246 4.05312 16.044 4.22493 16.0083L5.7916 15.6917C5.99095 15.6505 6.19848 15.6837 6.37503 15.785C6.55158 15.8863 6.68494 16.0488 6.74993 16.2417L7.25827 17.7667C7.31625 17.9391 7.4291 18.0879 7.57957 18.1902C7.73005 18.2926 7.90988 18.3428 8.0916 18.3333H11.4249C11.5996 18.3338 11.7701 18.2793 11.9121 18.1776C12.0542 18.0759 12.1607 17.9322 12.2166 17.7667L12.7249 16.2417C12.7899 16.0488 12.9233 15.8863 13.0998 15.785C13.2764 15.6837 13.4839 15.6505 13.6833 15.6917L15.2499 16.0083C15.4217 16.044 15.6004 16.0246 15.7606 15.9528C15.9207 15.8809 16.054 15.7604 16.1416 15.6083L17.8083 12.725C17.8967 12.5728 17.9347 12.3964 17.9168 12.2212C17.8988 12.0461 17.8258 11.8811 17.7083 11.75L16.5833 10.55ZM15.3416 11.6667L16.0083 12.4167L14.9416 14.2667L13.9583 14.0667C13.3581 13.944 12.7337 14.0459 12.2038 14.3532C11.6738 14.6604 11.2751 15.1515 11.0833 15.7333L10.7666 16.6667H8.63327L8.33327 15.7167C8.14148 15.1349 7.74275 14.6437 7.21277 14.3365C6.68279 14.0293 6.05845 13.9273 5.45827 14.05L4.47493 14.25L3.3916 12.4083L4.05827 11.6583C4.46823 11.2 4.69488 10.6066 4.69488 9.99166C4.69488 9.37672 4.46823 8.78335 4.05827 8.32499L3.3916 7.57499L4.45827 5.74166L5.4416 5.94166C6.04178 6.06435 6.66612 5.96239 7.1961 5.65516C7.72608 5.34792 8.12481 4.85679 8.3166 4.27499L8.63327 3.33333H10.7666L11.0833 4.28333C11.2751 4.86513 11.6738 5.35626 12.2038 5.66349C12.7337 5.97073 13.3581 6.07268 13.9583 5.94999L14.9416 5.74999L16.0083 7.59999L15.3416 8.34999C14.9362 8.80729 14.7124 9.39723 14.7124 10.0083C14.7124 10.6194 14.9362 11.2094 15.3416 11.6667V11.6667ZM9.69993 6.66666C9.04066 6.66666 8.3962 6.86216 7.84803 7.22843C7.29987 7.5947 6.87263 8.1153 6.62034 8.72438C6.36804 9.33347 6.30203 10.0037 6.43065 10.6503C6.55927 11.2969 6.87674 11.8908 7.34291 12.357C7.80909 12.8232 8.40303 13.1407 9.04963 13.2693C9.69624 13.3979 10.3665 13.3319 10.9755 13.0796C11.5846 12.8273 12.1052 12.4001 12.4715 11.8519C12.8378 11.3037 13.0333 10.6593 13.0333 9.99999C13.0333 9.11594 12.6821 8.26809 12.057 7.64297C11.4318 7.01785 10.584 6.66666 9.69993 6.66666V6.66666ZM9.69993 11.6667C9.3703 11.6667 9.04807 11.5689 8.77398 11.3858C8.4999 11.2026 8.28628 10.9423 8.16013 10.6378C8.03399 10.3333 8.00098 9.99815 8.06529 9.67484C8.1296 9.35154 8.28834 9.05457 8.52142 8.82148C8.75451 8.5884 9.05148 8.42966 9.37478 8.36535C9.69809 8.30104 10.0332 8.33405 10.3377 8.46019C10.6423 8.58634 10.9026 8.79996 11.0857 9.07404C11.2689 9.34813 11.3666 9.67036 11.3666 9.99999C11.3666 10.442 11.191 10.8659 10.8784 11.1785C10.5659 11.4911 10.142 11.6667 9.69993 11.6667Z" fill="#424C5D"/>
</svg>
