<svg width="14" height="14" viewBox="0 0 14 14" fill="none" xmlns="http://www.w3.org/2000/svg">
<path d="M8.22499 6.99999L13.7375 1.4875C14.0875 1.1375 14.0875 0.612499 13.7375 0.2625C13.3875 -0.0874999 12.8625 -0.0874999 12.5125 0.2625L6.99999 5.775L1.4875 0.2625C1.1375 -0.0874999 0.6125 -0.0874999 0.2625 0.2625C-0.0874998 0.612499 -0.0874998 1.1375 0.2625 1.4875L5.775 6.99999L0.2625 12.5125C0.0875001 12.6875 0 12.8625 0 13.125C0 13.65 0.35 14 0.874999 14C1.1375 14 1.3125 13.9125 1.4875 13.7375L6.99999 8.22499L12.5125 13.7375C12.6875 13.9125 12.8625 14 13.125 14C13.3875 14 13.5625 13.9125 13.7375 13.7375C14.0875 13.3875 14.0875 12.8625 13.7375 12.5125L8.22499 6.99999Z" fill="black"/>
</svg>
